M48
; DRILL file {KiCad 8.0.5} date 2025-02-05T14:54:01+1100
; FORMAT={-:-/ absolute / metric / decimal}
; #@! TF.CreationDate,2025-02-05T14:54:01+11:00
; #@! TF.GenerationSoftware,Kicad,Pcbnew,8.0.5
; #@! TF.FileFunction,Plated,1,4,PTH
FMAT,2
METRIC
; #@! TA.AperFunction,Plated,PTH,ViaDrill
T1C0.150
%
G90
G05
T1
X0.19Y3.75
X0.19Y3.53
X0.19Y3.31
X0.19Y3.09
X0.19Y2.87
X0.19Y2.65
X0.19Y2.43
X0.19Y2.21
X0.19Y1.99
X0.19Y1.77
X0.19Y1.55
X0.19Y1.33
X0.19Y1.11
X0.19Y0.89
X0.19Y0.67
X0.19Y0.44
X0.23Y3.985
X0.23Y0.215
X0.55Y0.17
X0.57Y4.03
X0.81Y0.17
X0.83Y4.03
X1.14Y3.99
X1.14Y0.2
X1.17Y3.75
X1.17Y3.52
X1.17Y3.3
X1.17Y3.08
X1.17Y2.86
X1.17Y2.64
X1.17Y2.43
X1.17Y2.21
X1.17Y1.99
X1.17Y1.77
X1.17Y1.55
X1.17Y1.33
X1.17Y1.11
X1.17Y0.89
X1.17Y0.67
X1.17Y0.44
M30
