%TF.GenerationSoftware,KiCad,Pcbnew,8.0.5*%
%TF.CreationDate,2025-02-05T14:54:00+11:00*%
%TF.ProjectId,differential,64696666-6572-4656-9e74-69616c2e6b69,rev?*%
%TF.SameCoordinates,PX8d24d00PY7b06240*%
%TF.FileFunction,Copper,L2,Inr*%
%TF.FilePolarity,Positive*%
%FSLAX46Y46*%
G04 Gerber Fmt 4.6, Leading zero omitted, Abs format (unit mm)*
G04 Created by KiCad (PCBNEW 8.0.5) date 2025-02-05 14:54:00*
%MOMM*%
%LPD*%
G01*
G04 APERTURE LIST*
%TA.AperFunction,Conductor*%
%ADD10C,0.005000*%
%TD*%
%TA.AperFunction,ViaPad*%
%ADD11C,0.200000*%
%TD*%
%TA.AperFunction,Conductor*%
%ADD12C,0.150000*%
%TD*%
G04 APERTURE END LIST*
%TO.N,A-*%
D10*
X757500Y572500D02*
X902500Y572500D01*
X902500Y427500D01*
X757500Y427500D01*
X757500Y572500D01*
%TA.AperFunction,Conductor*%
G36*
X757500Y572500D02*
G01*
X902500Y572500D01*
X902500Y427500D01*
X757500Y427500D01*
X757500Y572500D01*
G37*
%TD.AperFunction*%
%TO.N,A+*%
X457500Y3750000D02*
X602500Y3750000D01*
X602500Y3605000D01*
X457500Y3605000D01*
X457500Y3750000D01*
%TA.AperFunction,Conductor*%
G36*
X457500Y3750000D02*
G01*
X602500Y3750000D01*
X602500Y3605000D01*
X457500Y3605000D01*
X457500Y3750000D01*
G37*
%TD.AperFunction*%
%TO.N,A-*%
X757500Y3750000D02*
X902500Y3750000D01*
X902500Y3605000D01*
X757500Y3605000D01*
X757500Y3750000D01*
%TA.AperFunction,Conductor*%
G36*
X757500Y3750000D02*
G01*
X902500Y3750000D01*
X902500Y3605000D01*
X757500Y3605000D01*
X757500Y3750000D01*
G37*
%TD.AperFunction*%
%TO.N,A+*%
X457500Y572500D02*
X602500Y572500D01*
X602500Y427500D01*
X457500Y427500D01*
X457500Y572500D01*
%TA.AperFunction,Conductor*%
G36*
X457500Y572500D02*
G01*
X602500Y572500D01*
X602500Y427500D01*
X457500Y427500D01*
X457500Y572500D01*
G37*
%TD.AperFunction*%
%TD*%
D11*
%TO.N,GND*%
X1170000Y2430000D03*
X190000Y2430000D03*
X1170000Y1770000D03*
X1170000Y2210000D03*
X1170000Y1990000D03*
X190000Y1770000D03*
X190000Y2210000D03*
X190000Y1990000D03*
X810000Y170000D03*
X550000Y170000D03*
X830000Y4030000D03*
X570000Y4030000D03*
X190000Y3530000D03*
X190000Y3090000D03*
X190000Y2650000D03*
X190000Y3750000D03*
X190000Y3310000D03*
X190000Y2870000D03*
X190000Y1550000D03*
X190000Y1110000D03*
X190000Y670000D03*
X190000Y440000D03*
X190000Y1330000D03*
X190000Y890000D03*
X1170000Y1550000D03*
X1170000Y1110000D03*
X1170000Y670000D03*
X1170000Y440000D03*
X1170000Y1330000D03*
X1170000Y890000D03*
X1170000Y3750000D03*
X1170000Y2640000D03*
X1170000Y3080000D03*
X1170000Y2860000D03*
X1170000Y3300000D03*
X1170000Y3520000D03*
X1140000Y200000D03*
X230000Y3985000D03*
X230000Y215000D03*
X1140000Y3990000D03*
%TD*%
D12*
%TO.N,A-*%
X830001Y500001D02*
X830001Y3677499D01*
%TO.N,A+*%
X529999Y500001D02*
X529999Y3677499D01*
%TO.N,A-*%
X830001Y3677499D02*
X830000Y3677500D01*
X830000Y500000D02*
X830001Y500001D01*
%TO.N,A+*%
X529999Y500001D02*
X530000Y500000D01*
X530000Y3677500D02*
X529999Y3677499D01*
%TD*%
%TA.AperFunction,Conductor*%
%TO.N,GND*%
G36*
X1171864Y4149948D02*
G01*
X1230054Y4131038D01*
X1266015Y4081536D01*
X1270859Y4050948D01*
X1270859Y163948D01*
X1251952Y105757D01*
X1202452Y69793D01*
X1171854Y64948D01*
X198995Y64996D01*
X140805Y83906D01*
X104844Y133408D01*
X100000Y163996D01*
X100000Y3731789D01*
X304498Y3731789D01*
X304498Y3621122D01*
X304499Y3621113D01*
X304499Y552844D01*
X304498Y552830D01*
X304498Y443628D01*
X304500Y443615D01*
X304500Y397066D01*
X327793Y340833D01*
X370833Y297793D01*
X427066Y274500D01*
X427067Y274500D01*
X632932Y274500D01*
X632934Y274500D01*
X642115Y278304D01*
X703110Y283104D01*
X717877Y278306D01*
X727066Y274500D01*
X773614Y274500D01*
X773622Y274499D01*
X785145Y274499D01*
X886378Y274499D01*
X886386Y274500D01*
X932933Y274500D01*
X932934Y274500D01*
X989167Y297793D01*
X1032207Y340833D01*
X1055500Y397066D01*
X1055500Y443615D01*
X1055501Y443624D01*
X1055501Y3730328D01*
X1055500Y3730342D01*
X1055500Y3780434D01*
X1032207Y3836666D01*
X1032207Y3836667D01*
X989167Y3879707D01*
X932934Y3903000D01*
X932933Y3903000D01*
X886386Y3903000D01*
X886378Y3903001D01*
X874855Y3903001D01*
X785145Y3903001D01*
X773622Y3903001D01*
X773614Y3903000D01*
X727064Y3903000D01*
X717885Y3899198D01*
X656888Y3894398D01*
X642115Y3899198D01*
X632936Y3903000D01*
X632934Y3903000D01*
X487934Y3903000D01*
X427066Y3903000D01*
X403774Y3893352D01*
X370834Y3879708D01*
X327792Y3836666D01*
X304500Y3780434D01*
X304500Y3731811D01*
X304498Y3731789D01*
X100000Y3731789D01*
X100000Y4050996D01*
X118907Y4109187D01*
X168407Y4145151D01*
X198999Y4149996D01*
X1171864Y4149948D01*
G37*
%TD.AperFunction*%
%TD*%
M02*
