%TF.GenerationSoftware,KiCad,Pcbnew,8.0.5*%
%TF.CreationDate,2025-02-02T21:17:30+11:00*%
%TF.ProjectId,differential,64696666-6572-4656-9e74-69616c2e6b69,rev?*%
%TF.SameCoordinates,PX8d24d00PY7b06240*%
%TF.FileFunction,Copper,L2,Bot*%
%TF.FilePolarity,Positive*%
%FSLAX46Y46*%
G04 Gerber Fmt 4.6, Leading zero omitted, Abs format (unit mm)*
G04 Created by KiCad (PCBNEW 8.0.5) date 2025-02-02 21:17:30*
%MOMM*%
%LPD*%
G01*
G04 APERTURE LIST*
G04 Aperture macros list*
%AMRoundRect*
0 Rectangle with rounded corners*
0 $1 Rounding radius*
0 $2 $3 $4 $5 $6 $7 $8 $9 X,Y pos of 4 corners*
0 Add a 4 corners polygon primitive as box body*
4,1,4,$2,$3,$4,$5,$6,$7,$8,$9,$2,$3,0*
0 Add four circle primitives for the rounded corners*
1,1,$1+$1,$2,$3*
1,1,$1+$1,$4,$5*
1,1,$1+$1,$6,$7*
1,1,$1+$1,$8,$9*
0 Add four rect primitives between the rounded corners*
20,1,$1+$1,$2,$3,$4,$5,0*
20,1,$1+$1,$4,$5,$6,$7,0*
20,1,$1+$1,$6,$7,$8,$9,0*
20,1,$1+$1,$8,$9,$2,$3,0*%
G04 Aperture macros list end*
%TA.AperFunction,SMDPad,CuDef*%
%ADD10RoundRect,0.010000X0.040000X0.040000X-0.040000X0.040000X-0.040000X-0.040000X0.040000X-0.040000X0*%
%TD*%
%TA.AperFunction,ViaPad*%
%ADD11C,0.200000*%
%TD*%
%TA.AperFunction,Conductor*%
%ADD12C,0.200000*%
%TD*%
G04 APERTURE END LIST*
D10*
%TO.P,GND1,1,1*%
%TO.N,GND*%
X300000Y2900000D03*
%TD*%
D11*
%TO.N,GND*%
X635000Y2850000D03*
X215000Y2410000D03*
X215000Y610000D03*
X1085000Y330000D03*
X1085000Y1510000D03*
X215000Y910000D03*
X1085000Y1210000D03*
X215000Y2710000D03*
X1085000Y1810000D03*
X215000Y2110000D03*
X1085000Y910000D03*
X215000Y1210000D03*
X635000Y200000D03*
X215000Y330000D03*
X1085000Y610000D03*
X215000Y1510000D03*
X1085000Y2710000D03*
X1085000Y2110000D03*
X215000Y1810000D03*
X1085000Y2410000D03*
%TD*%
D12*
%TO.N,GND*%
X215000Y1510000D02*
X215000Y1810000D01*
X1085000Y2730000D02*
X1085000Y2710000D01*
X1085000Y2410000D02*
X1085000Y2110000D01*
X215000Y330000D02*
X215000Y610000D01*
X1085000Y2110000D02*
X1085000Y1810000D01*
X215000Y1810000D02*
X215000Y2110000D01*
X1085000Y1210000D02*
X1085000Y910000D01*
X1085000Y610000D02*
X1085000Y330000D01*
X1085000Y2710000D02*
X1085000Y2410000D01*
X215000Y1210000D02*
X215000Y1510000D01*
X215000Y2110000D02*
X215000Y2410000D01*
X1085000Y1510000D02*
X1085000Y1210000D01*
X215000Y910000D02*
X215000Y1210000D01*
X215000Y2410000D02*
X215000Y2710000D01*
X1085000Y910000D02*
X1085000Y610000D01*
X215000Y610000D02*
X215000Y910000D01*
X215000Y2710000D02*
X215000Y2730000D01*
X1085000Y1810000D02*
X1085000Y1510000D01*
%TD*%
%TA.AperFunction,Conductor*%
%TO.N,GND*%
G36*
X1145648Y535648D02*
G01*
X1160000Y501000D01*
X1160000Y124000D01*
X1145648Y89352D01*
X1111000Y75000D01*
X184000Y75000D01*
X149352Y89352D01*
X135000Y124000D01*
X135000Y501000D01*
X149352Y535648D01*
X184000Y550000D01*
X1111000Y550000D01*
X1145648Y535648D01*
G37*
%TD.AperFunction*%
%TD*%
%TA.AperFunction,Conductor*%
%TO.N,GND*%
G36*
X1195648Y2985648D02*
G01*
X1210000Y2951000D01*
X1210000Y2549000D01*
X1195648Y2514352D01*
X1161000Y2500000D01*
X159000Y2500000D01*
X124352Y2514352D01*
X110000Y2549000D01*
X110000Y2951000D01*
X124352Y2985648D01*
X159000Y3000000D01*
X1161000Y3000000D01*
X1195648Y2985648D01*
G37*
%TD.AperFunction*%
%TD*%
M02*
