M48
; DRILL file {KiCad 8.0.5} date 2025-02-02T21:17:31+1100
; FORMAT={-:-/ absolute / metric / decimal}
; #@! TF.CreationDate,2025-02-02T21:17:31+11:00
; #@! TF.GenerationSoftware,Kicad,Pcbnew,8.0.5
; #@! TF.FileFunction,Plated,1,2,PTH
FMAT,2
METRIC
; #@! TA.AperFunction,Plated,PTH,ViaDrill
T1C0.150
%
G90
G05
T1
X0.215Y2.71
X0.215Y2.41
X0.215Y2.11
X0.215Y1.81
X0.215Y1.51
X0.215Y1.21
X0.215Y0.91
X0.215Y0.61
X0.215Y0.33
X0.635Y2.85
X0.635Y0.2
X1.085Y2.71
X1.085Y2.41
X1.085Y2.11
X1.085Y1.81
X1.085Y1.51
X1.085Y1.21
X1.085Y0.91
X1.085Y0.61
X1.085Y0.33
M30
