M48
; DRILL file {KiCad 8.0.5} date 2025-02-05T01:03:54+1100
; FORMAT={-:-/ absolute / metric / decimal}
; #@! TF.CreationDate,2025-02-05T01:03:54+11:00
; #@! TF.GenerationSoftware,Kicad,Pcbnew,8.0.5
; #@! TF.FileFunction,Plated,1,2,PTH
FMAT,2
METRIC
; #@! TA.AperFunction,Plated,PTH,ViaDrill
T1C0.150
%
G90
G05
T1
X0.21Y2.71
X0.21Y2.41
X0.21Y2.11
X0.21Y1.81
X0.21Y1.51
X0.21Y1.21
X0.21Y0.91
X0.21Y0.61
X0.21Y0.33
X0.46Y2.92
X0.46Y0.2
X0.77Y2.9
X0.78Y0.22
X1.09Y2.92
X1.09Y0.2
X1.34Y2.71
X1.34Y2.41
X1.34Y2.11
X1.34Y1.81
X1.34Y1.51
X1.34Y1.21
X1.34Y0.91
X1.34Y0.61
X1.34Y0.3
M30
