%TF.GenerationSoftware,KiCad,Pcbnew,8.0.5*%
%TF.CreationDate,2025-02-05T01:03:52+11:00*%
%TF.ProjectId,differential,64696666-6572-4656-9e74-69616c2e6b69,rev?*%
%TF.SameCoordinates,PX8d24d00PY7b06240*%
%TF.FileFunction,Copper,L2,Bot*%
%TF.FilePolarity,Positive*%
%FSLAX46Y46*%
G04 Gerber Fmt 4.6, Leading zero omitted, Abs format (unit mm)*
G04 Created by KiCad (PCBNEW 8.0.5) date 2025-02-05 01:03:53*
%MOMM*%
%LPD*%
G01*
G04 APERTURE LIST*
G04 Aperture macros list*
%AMRoundRect*
0 Rectangle with rounded corners*
0 $1 Rounding radius*
0 $2 $3 $4 $5 $6 $7 $8 $9 X,Y pos of 4 corners*
0 Add a 4 corners polygon primitive as box body*
4,1,4,$2,$3,$4,$5,$6,$7,$8,$9,$2,$3,0*
0 Add four circle primitives for the rounded corners*
1,1,$1+$1,$2,$3*
1,1,$1+$1,$4,$5*
1,1,$1+$1,$6,$7*
1,1,$1+$1,$8,$9*
0 Add four rect primitives between the rounded corners*
20,1,$1+$1,$2,$3,$4,$5,0*
20,1,$1+$1,$4,$5,$6,$7,0*
20,1,$1+$1,$6,$7,$8,$9,0*
20,1,$1+$1,$8,$9,$2,$3,0*%
G04 Aperture macros list end*
%TA.AperFunction,SMDPad,CuDef*%
%ADD10RoundRect,0.010000X0.040000X0.040000X-0.040000X0.040000X-0.040000X-0.040000X0.040000X-0.040000X0*%
%TD*%
%TA.AperFunction,ViaPad*%
%ADD11C,0.200000*%
%TD*%
%TA.AperFunction,Conductor*%
%ADD12C,0.200000*%
%TD*%
G04 APERTURE END LIST*
D10*
%TO.P,GND1,1,1*%
%TO.N,GND*%
X300000Y2900000D03*
%TD*%
D11*
%TO.N,GND*%
X1090000Y2920000D03*
X460000Y2920000D03*
X770000Y2900000D03*
X460000Y200000D03*
X1090000Y200000D03*
X780000Y220000D03*
X210000Y2410000D03*
X210000Y610000D03*
X1340000Y300000D03*
X1340000Y1510000D03*
X210000Y910000D03*
X1340000Y1210000D03*
X210000Y2710000D03*
X1340000Y1810000D03*
X210000Y2110000D03*
X1340000Y910000D03*
X210000Y1210000D03*
X210000Y330000D03*
X1340000Y610000D03*
X210000Y1510000D03*
X1340000Y2710000D03*
X1340000Y2110000D03*
X210000Y1810000D03*
X1340000Y2410000D03*
%TD*%
D12*
%TO.N,GND*%
X210000Y1510000D02*
X210000Y1810000D01*
X1340000Y2730000D02*
X1340000Y2710000D01*
X1340000Y2410000D02*
X1340000Y2110000D01*
X210000Y330000D02*
X210000Y610000D01*
X1340000Y2110000D02*
X1340000Y1810000D01*
X210000Y1810000D02*
X210000Y2110000D01*
X1340000Y1210000D02*
X1340000Y910000D01*
X1340000Y580000D02*
X1340000Y300000D01*
X1340000Y2710000D02*
X1340000Y2410000D01*
X210000Y1210000D02*
X210000Y1510000D01*
X210000Y2110000D02*
X210000Y2410000D01*
X1340000Y1510000D02*
X1340000Y1210000D01*
X210000Y910000D02*
X210000Y1210000D01*
X210000Y2410000D02*
X210000Y2710000D01*
X1340000Y910000D02*
X1340000Y610000D01*
X210000Y610000D02*
X210000Y910000D01*
X210000Y2710000D02*
X210000Y2730000D01*
X1340000Y1810000D02*
X1340000Y1510000D01*
%TD*%
%TA.AperFunction,Conductor*%
%TO.N,GND*%
G36*
X1425648Y575648D02*
G01*
X1440000Y541000D01*
X1440000Y124000D01*
X1425648Y89352D01*
X1391000Y75000D01*
X184000Y75000D01*
X149352Y89352D01*
X135000Y124000D01*
X135000Y541000D01*
X149352Y575648D01*
X184000Y590000D01*
X1391000Y590000D01*
X1425648Y575648D01*
G37*
%TD.AperFunction*%
%TD*%
%TA.AperFunction,Conductor*%
%TO.N,GND*%
G36*
X1435648Y3065648D02*
G01*
X1450000Y3031000D01*
X1450000Y2569000D01*
X1435648Y2534352D01*
X1401000Y2520000D01*
X159000Y2520000D01*
X124352Y2534352D01*
X110000Y2569000D01*
X110000Y3031000D01*
X124352Y3065648D01*
X159000Y3080000D01*
X1401000Y3080000D01*
X1435648Y3065648D01*
G37*
%TD.AperFunction*%
%TD*%
M02*
