%TF.GenerationSoftware,KiCad,Pcbnew,8.0.5*%
%TF.CreationDate,2025-02-05T01:03:52+11:00*%
%TF.ProjectId,differential,64696666-6572-4656-9e74-69616c2e6b69,rev?*%
%TF.SameCoordinates,PX8d24d00PY7b06240*%
%TF.FileFunction,Copper,L1,Top*%
%TF.FilePolarity,Positive*%
%FSLAX46Y46*%
G04 Gerber Fmt 4.6, Leading zero omitted, Abs format (unit mm)*
G04 Created by KiCad (PCBNEW 8.0.5) date 2025-02-05 01:03:52*
%MOMM*%
%LPD*%
G01*
G04 APERTURE LIST*
G04 Aperture macros list*
%AMRoundRect*
0 Rectangle with rounded corners*
0 $1 Rounding radius*
0 $2 $3 $4 $5 $6 $7 $8 $9 X,Y pos of 4 corners*
0 Add a 4 corners polygon primitive as box body*
4,1,4,$2,$3,$4,$5,$6,$7,$8,$9,$2,$3,0*
0 Add four circle primitives for the rounded corners*
1,1,$1+$1,$2,$3*
1,1,$1+$1,$4,$5*
1,1,$1+$1,$6,$7*
1,1,$1+$1,$8,$9*
0 Add four rect primitives between the rounded corners*
20,1,$1+$1,$2,$3,$4,$5,0*
20,1,$1+$1,$4,$5,$6,$7,0*
20,1,$1+$1,$6,$7,$8,$9,0*
20,1,$1+$1,$8,$9,$2,$3,0*%
G04 Aperture macros list end*
%TA.AperFunction,SMDPad,CuDef*%
%ADD10RoundRect,0.015000X-0.060000X-0.060000X0.060000X-0.060000X0.060000X0.060000X-0.060000X0.060000X0*%
%TD*%
%TA.AperFunction,SMDPad,CuDef*%
%ADD11RoundRect,0.015000X0.060000X0.060000X-0.060000X0.060000X-0.060000X-0.060000X0.060000X-0.060000X0*%
%TD*%
%TA.AperFunction,ViaPad*%
%ADD12C,0.200000*%
%TD*%
%TA.AperFunction,Conductor*%
%ADD13C,0.150000*%
%TD*%
G04 APERTURE END LIST*
D10*
%TO.P,SP3,1,1*%
%TO.N,/A_-*%
X950000Y515000D03*
%TD*%
D11*
%TO.P,SP2,1,1*%
%TO.N,/A_-*%
X950000Y2600000D03*
%TD*%
D10*
%TO.P,SP1,1,1*%
%TO.N,/A_+*%
X600000Y515000D03*
%TD*%
D11*
%TO.P,SP0,1,1*%
%TO.N,/A_+*%
X600000Y2600000D03*
%TD*%
D12*
%TO.N,GND*%
X1090000Y2920000D03*
X460000Y2920000D03*
X770000Y2900000D03*
X460000Y200000D03*
X1090000Y200000D03*
X780000Y220000D03*
X210000Y2410000D03*
X210000Y610000D03*
X1340000Y300000D03*
X1340000Y1510000D03*
X210000Y910000D03*
X1340000Y1210000D03*
X210000Y2710000D03*
X1340000Y1810000D03*
X210000Y2110000D03*
X1340000Y910000D03*
X210000Y1210000D03*
X210000Y330000D03*
X1340000Y610000D03*
X210000Y1510000D03*
X1340000Y2710000D03*
X1340000Y2110000D03*
X210000Y1810000D03*
X1340000Y2410000D03*
%TD*%
D13*
%TO.N,/A_-*%
X950000Y2600000D02*
X950000Y515000D01*
%TO.N,/A_+*%
X600000Y2600000D02*
X600000Y515000D01*
%TD*%
%TA.AperFunction,Conductor*%
%TO.N,GND*%
G36*
X1356865Y3089948D02*
G01*
X1415053Y3071038D01*
X1451015Y3021537D01*
X1455859Y2990948D01*
X1455859Y163948D01*
X1436952Y105757D01*
X1387452Y69793D01*
X1356855Y64948D01*
X198996Y64996D01*
X140806Y83906D01*
X104844Y133407D01*
X100000Y163996D01*
X100000Y2644857D01*
X374500Y2644857D01*
X374500Y470144D01*
X408828Y387267D01*
X408829Y387266D01*
X408830Y387264D01*
X472264Y323830D01*
X472265Y323830D01*
X472266Y323829D01*
X555143Y289500D01*
X555145Y289500D01*
X644856Y289500D01*
X736745Y327561D01*
X738300Y323805D01*
X778744Y335274D01*
X811977Y324476D01*
X813255Y327561D01*
X905143Y289500D01*
X905145Y289500D01*
X994856Y289500D01*
X1047119Y311149D01*
X1077736Y323830D01*
X1141170Y387264D01*
X1175500Y470145D01*
X1175500Y2644855D01*
X1175500Y2644857D01*
X1141171Y2727734D01*
X1141170Y2727735D01*
X1141170Y2727736D01*
X1077736Y2791170D01*
X1077734Y2791171D01*
X1077733Y2791172D01*
X994857Y2825500D01*
X994855Y2825500D01*
X905145Y2825500D01*
X905143Y2825500D01*
X813255Y2787439D01*
X811707Y2791176D01*
X771071Y2779734D01*
X738003Y2790479D01*
X736745Y2787439D01*
X644857Y2825500D01*
X644855Y2825500D01*
X555145Y2825500D01*
X555143Y2825500D01*
X472266Y2791172D01*
X408828Y2727734D01*
X374500Y2644857D01*
X100000Y2644857D01*
X100000Y2990996D01*
X118907Y3049187D01*
X168407Y3085151D01*
X199002Y3089996D01*
X1356865Y3089948D01*
G37*
%TD.AperFunction*%
%TD*%
M02*
